<svg xmlns="http://www.w3.org/2000/svg" viewBox="0 0 595.28 362.15"><defs><style>.cls-1{fill:#0d3049;}.cls-2{fill:#bdbdbf;}.cls-3{fill:#2c292a;}.cls-4{fill:#404041;}.cls-5{fill:none;stroke:#1d1d1b;stroke-miterlimit:10;}.cls-6{fill:#221e1f;}.cls-7{fill:#5e5e60;}.cls-8{fill:#434244;}.cls-9{fill:#a7a9aa;}.cls-10{fill:#0f3652;}.cls-11{fill:#706f6f;}</style></defs><title>bilrfst</title><g id="Lag_2" data-name="Lag 2"><path class="cls-1" d="M169.72,223.73l21.78-15.52v9.66l7.16.25,187.93,6.33s-2.33-24.24,0-27l79.24,12.12v15.38s57.81.94,62.94-6.06V185.76s-55.94-33.57-93.24-37.3c0,0-18.64-2.33-34.49-.46l-73.65-35s-12.12-11.19-100.69-4.67c0,0-76.92,19.12-120.74,30.3h-27v22.38l-7,7,2.33,37.76-7.45,3.73v10.26l102.91,3.94"/><path class="cls-2" d="M367.59,151.24s-39-37.12-85.1-35.84c0,0-59.52,1.25-76.79,17.9C205.7,133.3,336.24,160.83,367.59,151.24Z"/><path class="cls-2" d="M222.14,109.51s2.37,3.27,0,5.86-83.41,15-83.41,15Z"/><path class="cls-2" d="M325.73,112.07s-4,4.25,1.15,6.71,53.6,32,53.6,32,17.6-.65,17.72-4.15S325.73,112.07,325.73,112.07Z"/><circle class="cls-3" cx="151.36" cy="201.55" r="40.15"/><path class="cls-4" d="M124.81,183.56s-11.41,11.43-4,29.21c0,0,5.8,20.39,32.12,22s32-29.25,32-29.25.58-21.69-9.55-25.71S124.81,183.56,124.81,183.56Z"/><circle class="cls-5" cx="151.66" cy="198.86" r="4.24"/><circle class="cls-6" cx="151.36" cy="198.86" r="30.49"/><polygon class="cls-7" points="146.18 191.86 130.26 177.56 128.44 179.61 145.09 195.59 123.85 187.33 122.79 190.42 144.06 198.86 121.65 200.71 121.65 203.1 145.09 201.84 123.91 212.17 125.06 214.31 146.18 204.09 130.84 220.73 132.1 222.5 149.16 205.86 140.47 227.35 142.04 227.9 150.86 208.35 148.61 229.35 151.36 229.35 154.48 205.86 157.44 228.75 159.35 228.29 156.32 204.43 167.25 225.31 169.72 223.73 159.79 205.86 176.46 217.19 177.84 215.19 159.09 203.1 181.06 203.1 181.06 200.69 159.09 200.06 181.06 190.91 180.42 187.57 158.79 196.85 176.17 180.15 174.38 178.06 159.09 193.46 167.6 173.05 164.86 171.16 156.32 193.3 157.53 168.47 155.4 168.47 153.66 192.04 150.4 168.53 147.85 168.67 150.44 191.86 139.67 171.01 137.93 171.85 146.18 191.86"/><circle class="cls-8" cx="151.66" cy="198.86" r="7"/><circle class="cls-9" cx="151.66" cy="198.86" r="4.24"/><circle class="cls-5" cx="428.72" cy="199.76" r="4.24"/><path class="cls-10" d="M371,150.8,379.8,157s9.45,8.31-4.42,45.77l-149.39-3s-26.12-55.83-20.29-66.46c0,0,44.28,9.39,49.67,9.37C263.42,142.65,335.53,160.57,371,150.8Z"/><path class="cls-11" d="M360.32,146.47s-10.85,2.41-13.76,0a5.1,5.1,0,0,1-3.39-6.12s.52-4.34,6.79-3.72,8.23,6.56,8.23,6.56l2.13.66Z"/><circle class="cls-3" cx="426.72" cy="204" r="40.15"/><path class="cls-4" d="M400.17,186s-11.4,11.43-3.94,29.21c0,0,5.8,20.39,32.11,22.05s32-29.25,32-29.25.58-21.69-9.55-25.71S400.17,186,400.17,186Z"/><circle class="cls-5" cx="427.03" cy="201.31" r="4.24"/><circle class="cls-6" cx="426.72" cy="201.31" r="30.49"/><polygon class="cls-7" points="421.55 194.31 405.63 180.01 403.8 182.06 420.45 198.04 399.21 189.78 398.15 192.87 419.42 201.31 397.02 203.16 397.02 205.55 420.45 204.29 399.27 214.61 400.43 216.75 421.55 206.54 406.2 223.18 407.46 224.95 424.52 208.31 415.83 229.79 417.4 230.35 426.22 210.8 423.97 231.8 426.72 231.8 429.84 208.31 432.81 231.19 434.71 230.74 431.69 206.87 442.61 227.76 445.08 226.18 435.16 208.31 451.82 219.63 453.2 217.64 434.45 205.55 456.42 205.55 456.42 203.14 434.45 202.5 456.42 193.36 455.79 190.02 434.15 199.3 451.53 182.6 449.74 180.51 434.45 195.91 442.96 175.5 440.22 173.61 431.69 195.75 432.89 170.92 430.76 170.92 429.02 194.49 425.76 170.98 423.21 171.12 425.8 194.31 415.03 173.45 413.29 174.3 421.55 194.31"/><circle class="cls-8" cx="427.03" cy="201.31" r="7"/><circle class="cls-9" cx="427.03" cy="201.31" r="4.24"/></g></svg>
