<svg xmlns="http://www.w3.org/2000/svg" viewBox="0 0 595.28 336.65"><defs><style>.cls-1{fill:#ededed;stroke:#1d1d1b;stroke-width:2px;}.cls-1,.cls-13{stroke-miterlimit:10;}.cls-2{font-size:23px;}.cls-16,.cls-2,.cls-21,.cls-25,.cls-4{fill:#1d1d1b;}.cls-18,.cls-19,.cls-2,.cls-20{font-family:SafetyDemiBold, Safety;}.cls-3{letter-spacing:-0.02em;}.cls-4{font-size:18px;font-family:SafetyLight, Safety;}.cls-5{letter-spacing:-0.02em;}.cls-6{letter-spacing:0em;}.cls-7{letter-spacing:-0.01em;}.cls-8{letter-spacing:0.02em;}.cls-9{letter-spacing:-0.02em;}.cls-10{letter-spacing:-0.02em;}.cls-11{fill:#d3a46b;}.cls-12{fill:#573720;}.cls-13{fill:none;stroke:#1e1e1c;stroke-width:0.5px;}.cls-14{fill:#7f381a;}.cls-15{fill:#a22027;}.cls-16{font-size:19px;}.cls-16,.cls-21{font-family:Safety;}.cls-17{font-family:Safety-Bold, Safety;font-weight:700;}.cls-17,.cls-18{letter-spacing:0em;}.cls-19{letter-spacing:0.02em;}.cls-21{font-size:11px;}.cls-22{letter-spacing:-0.1em;}.cls-23{letter-spacing:-0.02em;}.cls-24{letter-spacing:-0.01em;}</style></defs><title>pop100</title><g id="Lag_2" data-name="Lag 2"><rect class="cls-1" x="61.52" y="24.19" width="477.43" height="288.26"/><text class="cls-2" transform="translate(173.48 62.96)">Du er en gammel sur r<tspan class="cls-3" x="205.36" y="0">ø</tspan><tspan x="216.52" y="0" xml:space="preserve">v!  </tspan></text><text class="cls-4" transform="translate(128.74 205.81)">Vid<tspan class="cls-5" x="22.55" y="0">s</tspan><tspan class="cls-6" x="29.14" y="0">te du go</tspan><tspan class="cls-7" x="84.76" y="0">d</tspan><tspan class="cls-8" x="93.49" y="0">t</tspan><tspan x="99.61" y="0">, at 8/10 tilfælde af frontale </tspan><tspan x="0" y="21.6">sammen</tspan><tspan class="cls-9" x="59.76" y="21.6">s</tspan><tspan x="66.35" y="21.6">tød med 100km i timen, ender med dødelig</tspan><tspan x="0" y="43.2">udgang? Sænk </tspan><tspan class="cls-10" x="106.34" y="43.2">f</tspan><tspan x="111.56" y="43.2">arten og pas på dig selv og andre. </tspan></text><path class="cls-11" d="M268.46,170.21l28.32,2.43a138.32,138.32,0,0,0,1.75-37.09c1.55,5.43,5.68,33,8.5,38l33.56.76c4.39-12.62,7.12-35.82,9.59-60.76-1.83-11.91-2.7-21.57-11.3-29.39l-64.43-2.81c-12.74,28.07-13.6,34.22-13,47.91A213.15,213.15,0,0,0,268.46,170.21Z"/><path class="cls-12" d="M306.79,88.11c-6.24,15.27-9.52,27.58-10.64,43.83-14.07,4.17-25.83,1.25-33.08-11.83,5.43,13.22,16.51,15.62,29.57,14.24a19.87,19.87,0,0,1,8.68,4.25c17,12.49,28.51,9.6,38.28,1.66-15.36,9.55-28.75,6.18-40.66-6.86C295.12,127,300.43,105.24,306.79,88.11Z"/><path class="cls-13" d="M297.51,133.25c-.44,1.34-.08,2.46.54,2.7s1.63-.23,1.65-.8c0-.4-.47-.85-1.18-1"/><circle class="cls-14" cx="302.36" cy="130.57" r="0.63"/><circle class="cls-15" cx="302.36" cy="130.59" r="0.42"/><circle class="cls-14" cx="303.52" cy="132.87" r="0.51"/><circle class="cls-15" cx="303.52" cy="132.89" r="0.34"/><circle class="cls-14" cx="292.17" cy="131.36" r="0.4"/><circle class="cls-15" cx="292.17" cy="131.37" r="0.26"/><circle class="cls-14" cx="293.26" cy="128.02" r="0.66"/><circle class="cls-15" cx="293.26" cy="128.03" r="0.43"/><circle class="cls-14" cx="291.15" cy="130.58" r="0.2"/><circle class="cls-15" cx="291.15" cy="130.58" r="0.13"/><path class="cls-13" d="M297.18,132.6c-.26.75-.07,1.39.28,1.53s.92-.11.94-.44-.26-.48-.66-.57"/><path class="cls-13" d="M296.64,130.38c.37,1.76-.26,3.14-1.08,3.37s-2.05-.55-2-1.28c0-.51.72-1,1.65-1.14"/><path class="cls-13" d="M296.74,131.09a2,2,0,0,0,1.14,1.71c.45.11,1-.26.82-.63a1.36,1.36,0,0,0-1.05-.57"/><circle class="cls-14" cx="285.28" cy="131.95" r="0.66"/><circle class="cls-15" cx="285.28" cy="131.97" r="0.43"/><circle class="cls-14" cx="305.35" cy="137.91" r="0.4"/><circle class="cls-15" cx="305.35" cy="137.92" r="0.26"/><path class="cls-12" d="M298.78,136.4l.17.92c6,4.18,12.7,10.66,20.49,11C311.78,147.49,304.92,141.43,298.78,136.4Z"/><path class="cls-12" d="M293.73,133.94l-.44.65c-6,1.18-13.23,3.89-19.2,1.5C280.14,138.06,287.38,135.73,293.73,133.94Z"/><path class="cls-12" d="M295.79,133.83l-.3.62c-5.07,1.86-11.08,5.23-16.65,4C284.42,139.3,290.45,136.27,295.79,133.83Z"/><path class="cls-13" d="M295.9,133.45c.37,1.76-.25,3.14-1.09,3.37s-2-.54-2-1.27c.05-.51.72-1,1.66-1.14"/><path class="cls-13" d="M293.45,133.65c.32,1.56-.23,2.78-1,3s-1.8-.48-1.74-1.15c0-.45.63-.89,1.45-1"/><path class="cls-13" d="M296.41,132.59c.37,1,.1,1.9-.38,2.11s-1.27-.16-1.29-.61.35-.66.9-.81"/><path class="cls-13" d="M290.76,133.65a1.36,1.36,0,0,1-.57,1.22c-.27.12-.64-.05-.57-.3a.94.94,0,0,1,.63-.49"/><path class="cls-13" d="M288.1,133.93a1.6,1.6,0,0,0,.19,1.31c.19.23.52.23.52,0a1.16,1.16,0,0,0-.38-.69"/><path class="cls-13" d="M299.83,136.47c.75.78.86,1.71.51,2.07s-1.23.38-1.43,0,0-.75.49-1.11"/><path class="cls-13" d="M301.69,137.91a2.35,2.35,0,0,0,.2,2.29c.37.37,1.07.31,1.11-.14a1.64,1.64,0,0,0-.7-1.17"/><path class="cls-13" d="M299.73,135.85c.21.57,0,1.08-.22,1.2s-.72-.09-.73-.34.2-.38.51-.47"/><path class="cls-13" d="M300.25,135.49a2.34,2.34,0,0,0,1,2.08c.48.21,1.11-.09,1-.52a1.62,1.62,0,0,0-1.07-.84"/><text class="cls-16" transform="translate(344.68 280.68)">Det er<tspan class="cls-17" x="45.31" y="0" xml:space="preserve"> #</tspan><tspan class="cls-18" x="58.99" y="0">S</tspan><tspan class="cls-19" x="68.36" y="0">k</tspan><tspan class="cls-20" x="77.86" y="0">ideSmart</tspan><tspan x="150.86" y="0">! </tspan></text><text class="cls-21" transform="matrix(0.97, -0.26, 0.26, 0.97, 411.01, 135.49)"><tspan class="cls-22">T</tspan><tspan x="4.38" y="0">ryk </tspan><tspan class="cls-23" x="20.33" y="0">f</tspan><tspan x="23.52" y="0">or at </tspan><tspan class="cls-24" x="45.26" y="0">k</tspan><tspan x="50.16" y="0">øre igen</tspan></text><polygon class="cls-25" points="449.23 134.12 453.07 150.57 467.88 139.32 449.23 134.12"/></g></svg>
