<svg xmlns="http://www.w3.org/2000/svg" viewBox="0 0 595.28 336.65"><defs><style>.cls-1{fill:#ededed;stroke:#1d1d1b;stroke-miterlimit:10;stroke-width:2px;}.cls-2{font-size:23px;font-family:SafetyDemiBold, Safety;}.cls-10,.cls-14,.cls-15,.cls-2{fill:#1d1d1b;}.cls-3{letter-spacing:-0.02em;}.cls-4{letter-spacing:0em;}.cls-5{letter-spacing:-0.02em;}.cls-6{letter-spacing:-0.05em;}.cls-7{fill:#c99a6b;}.cls-8{fill:#a07f53;}.cls-9{fill:#1e1e1c;}.cls-10{font-size:11px;font-family:Safety;}.cls-11{letter-spacing:-0.1em;}.cls-12{letter-spacing:-0.02em;}.cls-13{letter-spacing:-0.01em;}.cls-15{font-size:18px;font-family:SafetyLight, Safety;}.cls-16{letter-spacing:-0.02em;}.cls-17{letter-spacing:-0.01em;}.cls-18{letter-spacing:-0.01em;}.cls-19{letter-spacing:0.02em;}.cls-20{letter-spacing:-0.02em;}.cls-21{letter-spacing:-0.02em;}.cls-22{letter-spacing:-0.02em;}</style></defs><title>pop110</title><g id="Lag_2" data-name="Lag 2"><rect class="cls-1" x="67.03" y="24.19" width="477.43" height="288.26"/><text class="cls-2" transform="translate(162.07 78.4)">Du er så <tspan class="cls-3" x="78.11" y="0">s</tspan><tspan class="cls-4" x="86.92" y="0">tor en r</tspan><tspan class="cls-5" x="156.35" y="0">ø</tspan><tspan class="cls-6" x="167.51" y="0">v</tspan><tspan x="177.07" y="0">, at selv Kim</tspan><tspan x="62.98" y="27.6" xml:space="preserve">K er misundelig!  </tspan></text><path class="cls-7" d="M299.59,190.05l-4.25,5a53.77,53.77,0,0,1-2.21,13H255.84c-2.72-5.73-14.23-12-17.56-16-12.61-15.08-.54-40.55,15.64-60.44,20.16,0,59.9,7.65,90.32,0,20.64,16.72,37.35,53.1,12.65,63.26-5.07,2.07-2.77,1.28-13,13.78l-39.75-.57c-1-5.38-2.59-10.36-1.1-14.79Z"/><path class="cls-8" d="M245.16,190.91c15.5,8,30.22,10.72,50.22,4.19a11,11,0,0,0,4.25-5c.56,1.9,1.75,2.82,3.17,4,20.25,7.55,33.51,7.81,47.49,2.82-22.92,6.26-47.57-1-49.05-9a106.16,106.16,0,0,1,.54-25.44c-1.21,9-1.09,17.76-3.31,25C294.8,200.86,265,200.25,245.16,190.91Z"/><path class="cls-9" d="M301.39,165.64c-2.54-22.58-20-33.12-47.79-33.56l.7-1.53c10.57-6.84,24.65,1.39,48.95,3.67,18.11,1.69,32.48-7,40.12-3.52l3.51,3C320.46,131,307.8,149.1,301.39,165.64Z"/><text class="cls-10" transform="matrix(0.97, -0.26, 0.26, 0.97, 417.18, 148.13)"><tspan class="cls-11">T</tspan><tspan x="4.38" y="0">ryk </tspan><tspan class="cls-12" x="20.33" y="0">f</tspan><tspan x="23.52" y="0">or at </tspan><tspan class="cls-13" x="45.26" y="0">k</tspan><tspan x="50.16" y="0">øre igen</tspan></text><polygon class="cls-14" points="455.39 146.76 459.23 163.22 474.04 151.97 455.39 146.76"/><text class="cls-15" transform="translate(111.57 248.39)">Kører du <tspan class="cls-16" x="64.33" y="0">o</tspan><tspan class="cls-17" x="72.88" y="0">v</tspan><tspan x="80.55" y="0">er 30 % hurtigere, end det er tilla</tspan><tspan class="cls-18" x="308.77" y="0">d</tspan><tspan class="cls-19" x="317.5" y="0">t</tspan><tspan x="323.62" y="0">, </tspan><tspan class="cls-20" x="0" y="21.6">f</tspan><tspan x="5.22" y="21.6">år du et klip. Bødens </tspan><tspan class="cls-21" x="147.06" y="21.6">s</tspan><tspan x="153.65" y="21.6">tørrelse afhænger af ha</tspan><tspan class="cls-22" x="319.48" y="21.6">s</tspan><tspan x="326.06" y="21.6">tigheden.</tspan></text></g></svg>
