<svg xmlns="http://www.w3.org/2000/svg" viewBox="0 0 595.28 310.86"><defs><style>.cls-1{fill:#ededed;stroke:#1d1d1b;stroke-miterlimit:10;stroke-width:2px;}.cls-2{font-size:23px;}.cls-2,.cls-22,.cls-26,.cls-30,.cls-4{fill:#1d1d1b;}.cls-2,.cls-24,.cls-25{font-family:SafetyDemiBold, Safety;}.cls-3{letter-spacing:-0.02em;}.cls-4{font-size:18px;font-family:SafetyLight, Safety;}.cls-5{letter-spacing:-0.02em;}.cls-6{letter-spacing:0em;}.cls-7{letter-spacing:-0.01em;}.cls-8{letter-spacing:-0.02em;}.cls-9{letter-spacing:-0.02em;}.cls-10{letter-spacing:-0.02em;}.cls-11{letter-spacing:-0.01em;}.cls-12{letter-spacing:-0.02em;}.cls-13{letter-spacing:-0.1em;}.cls-14{letter-spacing:-0.02em;}.cls-15{letter-spacing:-0.03em;}.cls-16{letter-spacing:-0.01em;}.cls-17{letter-spacing:-0.06em;}.cls-18{fill:#ca9e67;}.cls-19{fill:#1e1e1c;}.cls-20{fill:#342313;}.cls-21{fill:#9e7342;}.cls-22{font-size:19px;}.cls-22,.cls-26{font-family:Safety;}.cls-23{font-family:Safety-Bold, Safety;font-weight:700;}.cls-25{letter-spacing:0.02em;}.cls-26{font-size:11px;}.cls-27{letter-spacing:-0.1em;}.cls-28{letter-spacing:-0.02em;}.cls-29{letter-spacing:-0.01em;}</style></defs><title>pop80</title><g id="Lag_2" data-name="Lag 2"><rect class="cls-1" x="72.6" y="11.3" width="477.43" height="288.26"/><text class="cls-2" transform="translate(189 50.88)">Du er en ægte squad-r<tspan class="cls-3" x="205.13" y="0">ø</tspan><tspan x="216.29" y="0" xml:space="preserve">v!  </tspan></text><text class="cls-4" transform="translate(129.97 209.44)">Vid<tspan class="cls-5" x="22.55" y="0">s</tspan><tspan class="cls-6" x="29.14" y="0">te du, at 50% af alle dødsulyk</tspan><tspan class="cls-7" x="226.63" y="0">k</tspan><tspan x="234.1" y="0">er </tspan><tspan class="cls-8" x="252.5" y="0">k</tspan><tspan x="259.92" y="0">unneundgåes</tspan><tspan class="cls-9" x="0" y="21.6">h</tspan><tspan x="8.53" y="21.6">vis vi </tspan><tspan class="cls-10" x="45.57" y="21.6">s</tspan><tspan x="52.16" y="21.6">topper med at </tspan><tspan class="cls-11" x="153.91" y="21.6">k</tspan><tspan x="161.47" y="21.6">øre </tspan><tspan class="cls-12" x="188.78" y="21.6">f</tspan><tspan x="194" y="21.6">or </tspan><tspan class="cls-10" x="212.86" y="21.6">s</tspan><tspan x="219.45" y="21.6">tærkt? </tspan><tspan class="cls-13" x="271.42" y="21.6">T</tspan><tspan x="277.86" y="21.6">ak </tspan><tspan class="cls-14" x="296.81" y="21.6">f</tspan><tspan x="302.03" y="21.6">ordi du </tspan><tspan x="0" y="43.2">bekymrer dig om dine omg</tspan><tspan class="cls-15" x="187.09" y="43.2">i</tspan><tspan class="cls-16" x="190.92" y="43.2">v</tspan><tspan x="198.59" y="43.2">else</tspan><tspan class="cls-17" x="226.06" y="43.2">r</tspan><tspan x="232.05" y="43.2" xml:space="preserve">.  </tspan></text><path class="cls-18" d="M257.49,174.21c-10.45-43-15.1-68.53,10.8-94,9-8.9,27.54-5.48,46.23-2.89,15.28-.66,29.55-.87,38.61,1.34l8.93,13.92c16.77,20.1,11.83,46.58-3.55,81.66H312.16c-2.57-9.57-1-24.19,2-30.52.26-2.27,0-4.37-3-5.21-2.1.08-4.05.49-4.54,4.21,2.52,10.21,2.32,20.47-.26,31.52Z"/><path class="cls-19" d="M314.7,107.74c6.5-19.52,19.86-29.73,41.55-24.27a30.33,30.33,0,0,0-3.76-5.67c-20.66-2.06-68.28-7-82-2.06l-2.19,4.44C289,76.27,307.8,75.91,314.7,107.74Z"/><path class="cls-20" d="M314.7,107.74c-.8,13.37-2.14,27.55-5.05,30.91a3.71,3.71,0,0,0,2.94.43C313,135.3,314,120.4,314.7,107.74Z"/><path class="cls-21" d="M280.28,146.43c10.36,1.48,20.48,1.64,26.84-1.72l-.47-2C304.57,146.83,292.13,147.18,280.28,146.43Z"/><path class="cls-21" d="M340.51,146.43c-9.18,1.47-19.15,1.39-26.74-1.88l.45-1.86C317.1,146.83,329.69,147.5,340.51,146.43Z"/><text class="cls-22" transform="translate(363.22 282.99)">Du er <tspan class="cls-23" x="42.54" y="0">#</tspan><tspan class="cls-24" x="53.18" y="0">S</tspan><tspan class="cls-25" x="62.55" y="0">k</tspan><tspan class="cls-24" x="72.05" y="0">ideSej</tspan><tspan x="120.31" y="0">!</tspan></text><text class="cls-26" transform="matrix(0.97, -0.26, 0.26, 0.97, 436.01, 117.46)"><tspan class="cls-27">T</tspan><tspan x="4.38" y="0">ryk </tspan><tspan class="cls-28" x="20.33" y="0">f</tspan><tspan x="23.52" y="0">or at </tspan><tspan class="cls-29" x="45.26" y="0">k</tspan><tspan x="50.16" y="0">øre igen</tspan></text><polygon class="cls-30" points="474.23 116.09 478.07 132.54 492.88 121.29 474.23 116.09"/></g></svg>
