<svg xmlns="http://www.w3.org/2000/svg" viewBox="0 0 595.28 341.28"><defs><style>.cls-1{fill:#ededed;stroke:#1d1d1b;stroke-miterlimit:10;stroke-width:2px;}.cls-2{font-size:23px;}.cls-2,.cls-21,.cls-26,.cls-30,.cls-7{fill:#1d1d1b;}.cls-2,.cls-23,.cls-24,.cls-25{font-family:SafetyDemiBold, Safety;}.cls-3{letter-spacing:-0.01em;}.cls-4{letter-spacing:0em;}.cls-5{letter-spacing:-0.02em;}.cls-6{letter-spacing:0em;}.cls-7{font-size:18px;font-family:SafetyLight, Safety;}.cls-8{letter-spacing:-0.02em;}.cls-9{letter-spacing:-0.02em;}.cls-10{letter-spacing:-0.02em;}.cls-11{letter-spacing:0.02em;}.cls-12{letter-spacing:0em;}.cls-13{letter-spacing:-0.01em;}.cls-14{letter-spacing:0em;}.cls-15{letter-spacing:-0.02em;}.cls-16{fill:#c9a07f;}.cls-17{fill:#1e1e1c;}.cls-18{fill:#6e4928;}.cls-19{fill:#9e6848;}.cls-20{fill:#a0755b;}.cls-21{font-size:19px;}.cls-21,.cls-26{font-family:Safety;}.cls-22{font-family:Safety-Bold, Safety;font-weight:700;}.cls-22,.cls-23{letter-spacing:0em;}.cls-24{letter-spacing:0.02em;}.cls-26{font-size:11px;}.cls-27{letter-spacing:-0.1em;}.cls-28{letter-spacing:-0.02em;}.cls-29{letter-spacing:-0.01em;}</style></defs><title>pop90</title><g id="Lag_2" data-name="Lag 2"><rect class="cls-1" x="72.6" y="27.43" width="477.43" height="288.26"/><text class="cls-2" transform="translate(179 67.99)">Du er sgu li<tspan class="cls-3" x="103.11" y="0">d</tspan><tspan class="cls-4" x="114.84" y="0">t af en flad r</tspan><tspan class="cls-5" x="224.52" y="0">ø</tspan><tspan class="cls-6" x="235.68" y="0" xml:space="preserve">v!  </tspan></text><text class="cls-7" transform="translate(151.03 223.01)">Kører du 93 km<tspan class="cls-8" x="105.78" y="0">/</tspan><tspan x="112.75" y="0">t i </tspan><tspan class="cls-9" x="128.55" y="0">s</tspan><tspan x="135.14" y="0">tedet </tspan><tspan class="cls-10" x="175.33" y="0">f</tspan><tspan x="180.55" y="0">or 80 km</tspan><tspan class="cls-10" x="240.87" y="0">/</tspan><tspan class="cls-11" x="247.84" y="0">t</tspan><tspan class="cls-12" x="253.96" y="0">, </tspan><tspan class="cls-10" x="260.69" y="0">f</tspan><tspan x="265.91" y="0">ordobler</tspan><tspan x="0" y="21.6">du risi</tspan><tspan class="cls-13" x="43.38" y="21.6">k</tspan><tspan x="50.94" y="21.6">oen </tspan><tspan class="cls-8" x="80.03" y="21.6">f</tspan><tspan class="cls-14" x="85.25" y="21.6">or at ende i en dødsulyk</tspan><tspan class="cls-15" x="247.78" y="21.6">k</tspan><tspan class="cls-12" x="255.25" y="21.6">e.</tspan><tspan x="0" y="43.2">Sænk </tspan><tspan class="cls-8" x="41.62" y="43.2">f</tspan><tspan x="46.84" y="43.2" xml:space="preserve">arten og pas på dig selv og andre.  </tspan></text><path class="cls-16" d="M261.53,91.92c-4.71,30.92-4.31,61,2.89,92.57H310c1.35-10.27.39-23.14-1.54-37.09,2.6-2.59,4.31-6.87,6.18-9.59,2.1,2.36,5.36,6.95,7.93,7.44A204.23,204.23,0,0,0,329,184.49h39.77c5.15-35.68,2-66.86-4.85-95.33C334.18,104,300.25,103.46,261.53,91.92Z"/><path class="cls-17" d="M261.13,94.3l.26-3.33c15.52,7.1,63.47,16.42,102.52-1.81l.65,2.91L353.2,96.81c-6.65,17.48-16.3,36.26-30.64,48.58-3.61-.95-5-2.93-8.09-4.26-1.06,1.58-1.94,2.56-4.88,5.1C308.44,137.8,281.18,101,281.18,101Z"/><path class="cls-18" d="M308.42,147.4c-7.1,8.52-16.29,12.24-30.2,6.92,9.36,4.54,16.2,4.12,24.14,0,3,.71,5.83.4,6.88-.35C309,152,308.88,150,308.42,147.4Z"/><path class="cls-18" d="M322.53,145.39c7.1,8.52,19.24,12.46,33.16,7.14-9.11,5-19.75,4.33-26.85-.23-3,.71-4.47,2.37-5.52,1.62C323.13,151.53,322.48,148,322.53,145.39Z"/><path class="cls-18" d="M302.08,154c-1.7,2.63-9.08,4.87-16.47,4.87,6.58,0,13.73-1,16.95-4.71Z"/><path class="cls-18" d="M329.08,151.75c1.8,1.75,11.44,7.6,18.41,5.14-7.16,2.53-15.87-1.82-18.84-4.72Z"/><path class="cls-19" d="M300.38,157.25c-1.28,1.28-6.58,3.18-11.3,2.41a16.45,16.45,0,0,0,11.43-2.29Z"/><path class="cls-19" d="M334.56,156.82c1.29,1.28,6.39,3,11,1.61a13.09,13.09,0,0,1-11.11-1.49Z"/><path class="cls-20" d="M302.38,154.32a52.34,52.34,0,0,0,6.23-5.68l.64,5.31Q306.64,155.27,302.38,154.32Z"/><path class="cls-20" d="M322.52,146.8a31.27,31.27,0,0,0,6.32,5.5c-2.58.94-4.68,2.39-5.52,1.62C323,151.28,322.64,148.82,322.52,146.8Z"/><text class="cls-21" transform="translate(348.09 298.94)">Det er<tspan class="cls-22" x="45.31" y="0" xml:space="preserve"> #</tspan><tspan class="cls-23" x="58.99" y="0">S</tspan><tspan class="cls-24" x="68.36" y="0">k</tspan><tspan class="cls-25" x="77.86" y="0">ideSmart</tspan><tspan x="150.86" y="0">!</tspan></text><text class="cls-26" transform="matrix(0.97, -0.26, 0.26, 0.97, 426.22, 128.95)"><tspan class="cls-27">T</tspan><tspan x="4.38" y="0">ryk </tspan><tspan class="cls-28" x="20.33" y="0">f</tspan><tspan x="23.52" y="0">or at </tspan><tspan class="cls-29" x="45.26" y="0">k</tspan><tspan x="50.16" y="0">øre igen</tspan></text><polygon class="cls-30" points="464.44 127.58 468.28 144.03 483.09 132.78 464.44 127.58"/></g></svg>
