<svg xmlns="http://www.w3.org/2000/svg" viewBox="0 0 595.28 333.99"><defs><style>.cls-1{fill:#a9dae6;}.cls-2{fill:#5d3710;}.cls-3{fill:#706f6f;}.cls-4{fill:#fff;}.cls-5{fill:#50b04c;}.cls-6{fill:#3c8439;}.cls-7{fill:#067f33;}.cls-8{fill:#1ca638;}.cls-9{fill:#347532;}.cls-10{fill:#058b38;}.cls-11{fill:#7a9091;}.cls-12{fill:#e6283b;}.cls-13{font-size:16.68px;font-family:ArialRoundedMTBold, Arial Rounded MT Bold;}.cls-13,.cls-14{fill:#1d1d1b;}.cls-14{font-size:5.47px;font-family:HiraKakuStd-W8-83pv-RKSJ-H, Hiragino Kaku Gothic Std;}.cls-15{fill:#209847;}</style></defs><title>spilskærm</title><g id="Lag_2" data-name="Lag 2"><rect class="cls-1" y="-0.9" width="595.27" height="180.48"/><rect class="cls-2" x="142.8" y="119.66" width="14.69" height="66.54"/><rect class="cls-3" y="178.2" width="595.28" height="58.13"/><rect class="cls-4" y="205.14" width="44.6" height="7.54"/><rect class="cls-4" x="74.8" y="205.14" width="44.6" height="7.54"/><rect class="cls-4" x="156.7" y="205.14" width="44.6" height="7.54"/><rect class="cls-4" x="235.21" y="205.14" width="44.6" height="7.54"/><rect class="cls-4" x="314.32" y="205.14" width="44.6" height="7.54"/><rect class="cls-4" x="396.72" y="205.14" width="44.6" height="7.54"/><rect class="cls-4" x="473.13" y="205.14" width="44.6" height="7.54"/><rect class="cls-4" x="550.67" y="205.14" width="44.6" height="7.54"/><rect class="cls-2" x="74.8" y="111.66" width="14.69" height="66.54"/><circle class="cls-5" cx="95.1" cy="108.19" r="26.56"/><ellipse class="cls-6" cx="64.03" cy="102.89" rx="31.07" ry="31.85"/><ellipse class="cls-7" cx="160.62" cy="118.82" rx="23.91" ry="22.35" transform="translate(12.49 252.88) rotate(-78.64)"/><ellipse class="cls-8" cx="140.88" cy="119.66" rx="17.82" ry="18.35"/><rect class="cls-4" y="236.33" width="595.28" height="99.85"/><ellipse class="cls-4" cx="379.97" cy="61.65" rx="25.1" ry="16.64"/><ellipse class="cls-4" cx="412.79" cy="53.16" rx="19.91" ry="21.19"/><ellipse class="cls-4" cx="374.52" cy="40.5" rx="34.07" ry="21.15"/><ellipse class="cls-4" cx="525.72" cy="48.82" rx="30.7" ry="16.91"/><ellipse class="cls-4" cx="492.67" cy="67.87" rx="19.05" ry="25.81" transform="translate(210.11 477.13) rotate(-63.22)"/><ellipse class="cls-4" cx="535.36" cy="72.24" rx="24.97" ry="14.67"/><ellipse class="cls-4" cx="556.91" cy="53.72" rx="26.92" ry="9.18"/><ellipse class="cls-4" cx="264.9" cy="73.46" rx="23.47" ry="12.83"/><circle class="cls-4" cx="245.89" cy="58.37" r="19.01"/><ellipse class="cls-4" cx="216.85" cy="71.99" rx="37.25" ry="22.46"/><ellipse class="cls-4" cx="47.13" cy="32.12" rx="31.87" ry="20.65"/><ellipse class="cls-4" cx="23.02" cy="53.52" rx="14.32" ry="19.51" transform="translate(-35.13 49.95) rotate(-63.22)"/><ellipse class="cls-4" cx="65.04" cy="59.28" rx="32.07" ry="14.67"/><ellipse class="cls-4" cx="79.49" cy="37.69" rx="26.92" ry="12.25"/><ellipse class="cls-9" cx="82.68" cy="86.91" rx="28.53" ry="42.38"/><ellipse class="cls-10" cx="150.14" cy="102.89" rx="24.86" ry="18.51" transform="translate(34.62 243.54) rotate(-85.03)"/><path class="cls-11" d="M372.26,121s-.45-19.61,20.76-20.67c0,0,10.67-.54,16.33,8.17a20.13,20.13,0,0,1,3.57,8.76c.87,5.43.48,60.95.48,60.95h-2.18c-.65-50.87-.17-50.9-.29-56.8v-.24l-2,0V120l2-.1s.31-8.53-6.42-13.24a19.07,19.07,0,0,0-11.52-4.3v1.82h-.89v-1.82a19.41,19.41,0,0,0-13.25,6.27s-5,5.68-4.28,11.36h1.63v1l-1.78-.08,0,.61-2.16,0Z"/><circle class="cls-12" cx="392.92" cy="120.17" r="17.15"/><circle class="cls-4" cx="392.92" cy="120.17" r="13.77"/><text class="cls-13" transform="translate(383.28 124.06)">80</text><text class="cls-14" transform="translate(387.86 131.43)">km</text><rect class="cls-2" x="468.06" y="111.96" width="14.69" height="66.54"/><circle class="cls-5" cx="488.36" cy="108.48" r="26.56"/><ellipse class="cls-6" cx="457.29" cy="103.18" rx="31.07" ry="31.85"/><ellipse class="cls-15" cx="475.95" cy="87.21" rx="28.53" ry="42.38"/></g></svg>
